<svg width="173" height="20" viewBox="0 0 173 20" fill="none" xmlns="http://www.w3.org/2000/svg">
<g clip-path="url(#clip0_12012_28401)">
<path d="M85.4288 1.06695L85.1994 1.01989C84.2844 0.833703 83.367 1.32475 83.1518 2.11861L79.0778 17.1406C78.8626 17.9324 79.4301 18.7263 80.3475 18.9125L80.5769 18.9595C81.4919 19.1457 82.4093 18.6547 82.6245 17.8608L86.6985 2.83882C86.9137 2.047 86.3462 1.25314 85.4288 1.06695ZM84.2111 8.63319L83.3764 11.7145C83.2582 12.1462 82.7593 12.4163 82.258 12.314C81.7591 12.2117 81.447 11.78 81.5652 11.3462L82.3999 8.26491C82.5181 7.83319 83.017 7.56312 83.5183 7.66542C84.0172 7.76772 84.3293 8.19943 84.2111 8.63319Z" fill="white"/>
<path d="M82.2371 8.84747L81.7188 10.7598L83.5281 11.127L84.0465 9.2147L82.2371 8.84747Z" fill="white"/>
<path d="M80.0879 10.2944L78.1727 1.31641H72.9164L72.0889 5.1916L70.6891 11.7532C70.6063 12.1297 70.5307 12.5287 70.4645 12.9543C70.3983 13.3798 70.3226 13.7809 70.2398 14.1553C70.1736 13.7809 70.0932 13.3798 70.0034 12.9543C69.9112 12.5287 69.8237 12.1277 69.7409 11.7532L67.1873 1.31641H61.957L66.6624 18.6832H72.8928L74.8198 9.86884C74.9688 9.22024 75.1036 8.56551 75.2194 7.90873C75.3353 7.25196 75.4441 6.59109 75.5457 5.92817C75.645 6.59313 75.7538 7.24991 75.872 7.8985C75.9879 8.54914 76.1227 9.20592 76.2716 9.86884L78.1987 16.1849H78.3406L80.0903 10.2944H80.0879Z" fill="white"/>
<path d="M18.296 15.5201C18.296 16.4592 17.9579 17.2224 17.2816 17.8075C16.6054 18.3927 15.7234 18.6853 14.6381 18.6853H3.65981C2.57451 18.6853 1.69256 18.3927 1.01632 17.8075C0.340075 17.2224 0.00195312 16.4592 0.00195312 15.5201V12.7866H5.01466V14.7815H13.2856V11.5283H3.65981C2.57451 11.5283 1.73276 11.2725 1.14164 10.759C0.548149 10.2454 0.252589 9.51906 0.252589 8.57993V4.4367C0.252589 3.49757 0.59071 2.7344 1.26695 2.14923C1.9432 1.56407 2.82515 1.27148 3.91045 1.27148H14.5128C15.5981 1.27148 16.4801 1.56407 17.1563 2.14923C17.8325 2.7344 18.1707 3.49757 18.1707 4.4367V6.82238H13.158V5.17328H5.26294V7.94975H14.8864C15.9717 7.94975 16.8111 8.20755 17.4046 8.71906C17.9981 9.23261 18.2936 9.95895 18.2936 10.8981V15.518L18.296 15.5201Z" fill="white"/>
<path d="M60.4268 15.52C60.4268 16.4591 60.0887 17.2223 59.4125 17.8075C58.7362 18.3926 57.8543 18.6852 56.769 18.6852H45.7907C44.7054 18.6852 43.8234 18.3926 43.1472 17.8075C42.4709 17.2223 42.1328 16.4591 42.1328 15.52V4.43866C42.1328 3.49952 42.4709 2.73635 43.1472 2.15119C43.8234 1.56602 44.7054 1.27344 45.7907 1.27344H56.769C57.8543 1.27344 58.7362 1.56602 59.4125 2.15119C60.0887 2.73635 60.4268 3.49952 60.4268 4.43866V15.522V15.52ZM55.4141 14.7834V5.17523H47.1432V14.7834H55.4141Z" fill="white"/>
<path d="M38.9805 1.20312H33.9678V18.619H38.9805V1.20312Z" fill="white"/>
<path d="M25.9356 1.20312H20.9229V18.619H25.9356V1.20312Z" fill="white"/>
<path d="M34.6755 19.6927C34.1624 19.6927 33.6966 19.4513 33.4885 19.0789L31.1619 14.9255C30.9869 14.6124 31.0176 14.2544 31.2328 13.9638L24.9007 2.66767L24.5082 2.80067C24.4207 2.83136 24.3285 2.84568 24.2339 2.84568C23.9573 2.84568 23.7043 2.71269 23.5884 2.50808L23.5151 2.37714C23.4347 2.23391 23.4276 2.07637 23.4938 1.92905C23.5624 1.7756 23.7066 1.65284 23.8911 1.59146L24.2315 1.47483L24.0873 1.21908C23.9998 1.06358 23.9927 0.889668 24.0637 0.730077C24.1393 0.562302 24.2977 0.427264 24.5011 0.357699C24.598 0.324962 24.7021 0.308594 24.8061 0.308594C25.1135 0.308594 25.3925 0.453862 25.5202 0.680972L25.6881 0.979694L26.064 0.850793C26.1515 0.820103 26.2437 0.805781 26.3383 0.805781C26.6149 0.805781 26.8679 0.938773 26.9838 1.14338L27.0571 1.27432C27.1375 1.4155 27.1446 1.57509 27.0784 1.7224C27.0098 1.87586 26.8656 1.99862 26.6812 2.06L26.3549 2.17049L32.6704 13.438C33.0889 13.4994 33.4483 13.7204 33.6256 14.0334L35.9523 18.1869C36.0918 18.4344 36.1036 18.7127 35.9878 18.9705C35.8648 19.2447 35.6024 19.4677 35.2666 19.5823L35.1909 19.6089C35.0254 19.6661 34.8528 19.6948 34.6755 19.6948V19.6927Z" fill="white"/>
<path d="M24.8034 0.613811C24.9689 0.613811 25.1273 0.687468 25.1983 0.814322L25.508 1.3688L26.189 1.13555C26.2363 1.11918 26.2859 1.111 26.3332 1.111C26.4704 1.111 26.6028 1.17238 26.6595 1.27673L26.7328 1.40563C26.8108 1.5468 26.7281 1.71049 26.546 1.77187L25.8651 2.00512L32.436 13.7269C32.8025 13.7269 33.1477 13.8905 33.3037 14.1668L35.6304 18.3202C35.8408 18.6946 35.6186 19.1304 35.1338 19.2962L35.0582 19.3228C34.9329 19.3657 34.8004 19.3862 34.6728 19.3862C34.3063 19.3862 33.9587 19.2225 33.805 18.9463L31.4783 14.7928C31.3247 14.5207 31.405 14.2138 31.6462 14.0051L25.0729 2.27928L24.3754 2.51662C24.3281 2.53299 24.2785 2.54118 24.2312 2.54118C24.0941 2.54118 23.9616 2.4798 23.9049 2.37545L23.8316 2.24655C23.7536 2.10537 23.8363 1.94169 24.0184 1.88031L24.7159 1.64297L24.4062 1.08849C24.3116 0.91867 24.4109 0.720205 24.6308 0.646547C24.6875 0.626087 24.7467 0.617903 24.8058 0.617903M24.8034 0C24.6544 0 24.5078 0.0245524 24.3683 0.0716113C24.0751 0.171867 23.8434 0.370332 23.7323 0.617903C23.6306 0.840921 23.6377 1.09054 23.7441 1.31151C23.4746 1.40767 23.2641 1.59182 23.1601 1.81893C23.0584 2.04194 23.0702 2.29565 23.1932 2.51253L23.2665 2.64143C23.4415 2.95243 23.8198 3.15294 24.2312 3.15294C24.3707 3.15294 24.5078 3.13043 24.6355 3.08542L24.7206 3.05678L30.8281 13.956C30.6413 14.3018 30.6366 14.7028 30.8376 15.0609L33.1642 19.2143C33.4314 19.6931 34.0225 20.002 34.6704 20.002C34.8927 20.002 35.1102 19.9673 35.3159 19.8957L35.3916 19.8691C35.8172 19.7238 36.1529 19.4373 36.3137 19.0834C36.465 18.7458 36.4485 18.3816 36.2664 18.0542L33.9398 13.9008C33.7412 13.5448 33.3605 13.2829 32.9112 13.1724L26.8369 2.33453C27.0969 2.23836 27.3027 2.05627 27.402 1.83325C27.5036 1.61023 27.4918 1.35652 27.3689 1.13964L27.2956 1.01074C27.1206 0.699744 26.7423 0.499233 26.3309 0.499233C26.1914 0.499233 26.0542 0.521739 25.9265 0.566752L25.858 0.591304L25.8343 0.548338C25.6475 0.21688 25.2432 0.00204604 24.8034 0.00204604V0Z" fill="white"/>
<path d="M106.14 18.7343H93.0075C91.9222 18.7343 91.0402 18.4397 90.364 17.8545C89.6877 17.2694 89.3496 16.5062 89.3496 15.567V1.31641H94.6744V14.8284H106.14V18.7343Z" fill="white"/>
<path d="M120.984 18.7323H115.721V1.31641H120.984V18.7323Z" fill="white"/>
<path d="M148.178 18.7323H143.345L138.909 11.5977C138.675 11.2213 138.462 10.8796 138.27 10.5665C138.079 10.2555 137.89 9.94863 137.705 9.64582C137.521 9.34301 137.334 9.03815 137.143 8.73533C136.951 8.43252 136.745 8.09288 136.528 7.71641V18.7343H131.063V2.23303C131.063 1.72766 131.536 1.31845 132.12 1.31845H136.953L142.543 10.188C142.86 10.6647 143.141 11.0924 143.382 11.4668C143.624 11.8433 143.905 12.2832 144.222 12.7906V1.31641H149.235V17.8156C149.235 18.321 148.762 18.7302 148.178 18.7302V18.7323Z" fill="white"/>
<path d="M172.589 18.7323H166.122L160.279 12.009L158.128 13.6131V18.7323H153.56C153.162 18.7323 152.841 18.454 152.841 18.1103V1.9384C152.841 1.59467 153.162 1.31641 153.56 1.31641H158.128V7.99672L165.855 1.31641H171.506C171.922 1.31641 172.133 1.75017 171.839 2.00797L164.129 8.77625L172.908 18.1512C173.126 18.3844 172.934 18.7302 172.589 18.7302V18.7323Z" fill="white"/>
<path d="M109.98 1.31641H126.723C127.382 1.31641 127.919 1.78086 127.919 2.3517V5.2182H108.783V2.3517C108.783 1.78086 109.32 1.31641 109.98 1.31641Z" fill="white"/>
<path d="M109.98 14.832H126.723C127.382 14.832 127.919 15.2965 127.919 15.8673V18.7338H108.783V15.8673C108.783 15.2965 109.32 14.832 109.98 14.832Z" fill="white"/>
</g>
<defs>
<clipPath id="clip0_12012_28401">
<rect width="173" height="20" fill="white"/>
</clipPath>
</defs>
</svg>
